{
    "asset" : {
        "generator" : "Khronos glTF Blender I/O v3.4.50",
        "version" : "2.0"
    },
    "scene" : 0,
    "scenes" : [
        {
            "extras" : {
                "t3dExportFormat__" : 2,
                "t3dPackTextures__" : 1,
                "t3dExportLights__" : 0,
                "t3dExportCameras__" : 1,
                "t3dCameraResolution__" : [
                    796,
                    448
                ],
                "t3dExportOnSave__" : 1,
                "t3dExportFilepath__" : "/home/mateusz/projects/dirtwhirl/cubetest/grassblock.gltf",
                "t3dCollections__" : {
                    "Collection" : {
                        "objects" : [
                            "Camera",
                            "Cube"
                        ],
                        "offset" : [
                            0.0,
                            0.0,
                            0.0
                        ]
                    }
                },
                "t3dWorlds__" : {
                    "World" : {
                        "ambient color" : [
                            0.05087608844041824,
                            0.05087608844041824,
                            0.05087608844041824,
                            1.0
                        ],
                        "ambient energy" : 1.0,
                        "clear color" : [
                            0.5801682472229004,
                            0.7145553827285767,
                            1.0,
                            1.0
                        ],
                        "fog mode" : "OFF",
                        "fog color" : [
                            1.0,
                            1.0,
                            1.0,
                            1.0
                        ],
                        "fog range start" : 0.5,
                        "fog range end" : 0.8999999761581421
                    }
                },
                "t3dCurrentWorld__" : "World"
            },
            "name" : "Scene",
            "nodes" : [
                0,
                1
            ]
        }
    ],
    "nodes" : [
        {
            "camera" : 0,
            "extras" : {
                "t3dFovY__" : 0.6911112070083618,
                "t3dOriginalLocalPosition__" : [
                    -2.0293006896972656,
                    -1.9961071014404297,
                    0.7863848209381104
                ]
            },
            "name" : "Camera",
            "rotation" : [
                -0.07082682847976685,
                -0.3831629157066345,
                -0.029482701793313026,
                0.9204893112182617
            ],
            "translation" : [
                -2.0293006896972656,
                0.7863848209381104,
                1.9961071014404297
            ]
        },
        {
            "extras" : {
                "t3dOriginalLocalPosition__" : [
                    0.0,
                    0.0,
                    0.0
                ]
            },
            "mesh" : 0,
            "name" : "Cube",
            "scale" : [
                3.7300000190734863,
                3.7300000190734863,
                3.7300000190734863
            ]
        }
    ],
    "cameras" : [
        {
            "name" : "Camera.001",
            "perspective" : {
                "aspectRatio" : 1.7767857142857142,
                "yfov" : 0.3998137388457307,
                "zfar" : 1000,
                "znear" : 0.10000000149011612
            },
            "type" : "perspective"
        }
    ],
    "materials" : [
        {
            "doubleSided" : true,
            "name" : "Material",
            "pbrMetallicRoughness" : {
                "baseColorTexture" : {
                    "index" : 0
                },
                "metallicFactor" : 0,
                "roughnessFactor" : 0.4000000059604645
            }
        }
    ],
    "meshes" : [
        {
            "name" : "Cube.001",
            "primitives" : [
                {
                    "attributes" : {
                        "POSITION" : 0,
                        "TEXCOORD_0" : 1,
                        "NORMAL" : 2
                    },
                    "indices" : 3,
                    "material" : 0
                }
            ]
        }
    ],
    "textures" : [
        {
            "sampler" : 0,
            "source" : 0
        }
    ],
    "images" : [
        {
            "bufferView" : 4,
            "mimeType" : "image/png",
            "name" : "grass_block_texture"
        }
    ],
    "accessors" : [
        {
            "bufferView" : 0,
            "componentType" : 5126,
            "count" : 24,
            "max" : [
                0.13426923751831055,
                0.13426923751831055,
                0.13426923751831055
            ],
            "min" : [
                -0.13426923751831055,
                -0.13426923751831055,
                -0.13426923751831055
            ],
            "type" : "VEC3"
        },
        {
            "bufferView" : 1,
            "componentType" : 5126,
            "count" : 24,
            "type" : "VEC2"
        },
        {
            "bufferView" : 2,
            "componentType" : 5126,
            "count" : 24,
            "type" : "VEC3"
        },
        {
            "bufferView" : 3,
            "componentType" : 5123,
            "count" : 36,
            "type" : "SCALAR"
        }
    ],
    "bufferViews" : [
        {
            "buffer" : 0,
            "byteLength" : 288,
            "byteOffset" : 0,
            "target" : 34962
        },
        {
            "buffer" : 0,
            "byteLength" : 192,
            "byteOffset" : 288,
            "target" : 34962
        },
        {
            "buffer" : 0,
            "byteLength" : 288,
            "byteOffset" : 480,
            "target" : 34962
        },
        {
            "buffer" : 0,
            "byteLength" : 72,
            "byteOffset" : 768,
            "target" : 34963
        },
        {
            "buffer" : 0,
            "byteLength" : 1871,
            "byteOffset" : 840
        }
    ],
    "samplers" : [
        {
            "magFilter" : 9728,
            "minFilter" : 9984
        }
    ],
    "buffers" : [
        {
            "byteLength" : 2712,
            "uri" : "data:application/octet-stream;base64,"
        }
    ]
}
